<svg width="1492" height="806" viewBox="0 0 1492 806" fill="none" xmlns="http://www.w3.org/2000/svg">
<path d="M3 17.9562C6.66507 12.9708 14.3443 3 14.3443 3H309H1478C1478 3 1485.68 12.9708 1489.34 17.9562V788.5C1485.68 793.485 1478 803.456 1478 803.456H309H14.3444C14.3444 803.456 6.66517 793.485 3.0001 788.5L3 17.9562Z" fill="black" fill-opacity="0.8"/>
<path d="M309 3H14.3443C14.3443 3 6.66507 12.9708 3 17.9562L3.0001 788.5C6.66517 793.485 14.3444 803.456 14.3444 803.456H309M309 3H1478C1478 3 1485.68 12.9708 1489.34 17.9562V788.5C1485.68 793.485 1478 803.456 1478 803.456H309M309 3V803.456" stroke="white" stroke-width="5"/>
</svg>
