<svg width="447" height="15" viewBox="0 0 447 15" fill="none" xmlns="http://www.w3.org/2000/svg">
<path d="M445 2.00069H425.504C423.112 2.00069 420.755 2.5727 418.629 3.669L403.77 11.3317C401.644 12.428 399.287 13 396.895 13H391.377C388.985 13 386.628 12.428 384.502 11.3317L369.643 3.669C367.517 2.5727 365.16 2.00069 362.768 2.00069H357.25C354.858 2.00069 352.501 2.5727 350.375 3.669L335.516 11.3317C333.39 12.428 331.033 13 328.641 13H323.123C320.731 13 318.374 12.428 316.248 11.3318L308.818 7.50035M437.677 13H425.504C423.112 13 420.755 12.428 418.629 11.3318L403.769 3.66892C401.644 2.57267 399.286 2.00069 396.895 2.00069H391.377C388.985 2.00069 386.627 2.5727 384.501 3.669L369.642 11.3317C367.517 12.428 365.159 13 362.767 13H357.25C354.858 13 352.5 12.428 350.374 11.3317L335.515 3.669C333.39 2.5727 331.032 2.00069 328.64 2.00069H323.123C320.731 2.00069 318.373 2.5727 316.248 3.669L308.818 7.50035M308.818 7.50035L301.388 11.3317C299.263 12.428 296.905 13 294.513 13H288.996C286.604 13 284.246 12.428 282.121 11.3317L274.691 7.50026M308.818 7.50035L301.388 3.66892C299.262 2.57267 296.905 2.00069 294.513 2.00069H288.995C286.603 2.00069 284.246 2.5727 282.12 3.669L274.691 7.50026M274.691 7.50026L267.261 11.3317C265.135 12.428 262.778 13 260.386 13H254.868C252.476 13 250.119 12.428 247.993 11.3317L240.564 7.50043M274.691 7.50026L267.261 3.669C265.136 2.5727 262.778 2.00069 260.386 2.00069H254.869C252.477 2.00069 250.119 2.5727 247.994 3.669L240.564 7.50043M240.564 7.50043L233.134 3.669C231.008 2.5727 228.651 2.00069 226.259 2.00069H220.741C218.349 2.00069 215.992 2.5727 213.866 3.669L199.007 11.3317C196.881 12.428 194.524 13 192.132 13H186.614C184.222 13 181.865 12.428 179.739 11.3317L164.88 3.669C162.754 2.5727 160.397 2.00069 158.005 2.00069H152.487C150.095 2.00069 147.738 2.5727 145.612 3.669L130.753 11.3317C128.627 12.428 126.27 13 123.878 13H118.36C115.968 13 113.611 12.428 111.485 11.3318L104.055 7.50035M240.564 7.50043L233.134 11.3317C231.009 12.428 228.651 13 226.259 13H220.741C218.349 13 215.992 12.428 213.866 11.3318L199.006 3.66892C196.881 2.57267 194.523 2.00069 192.132 2.00069H186.614C184.222 2.00069 181.864 2.5727 179.739 3.669L164.879 11.3317C162.754 12.428 160.396 13 158.004 13H152.487C150.095 13 147.737 12.428 145.612 11.3317L130.752 3.669C128.627 2.5727 126.269 2.00069 123.877 2.00069H118.36C115.968 2.00069 113.61 2.5727 111.485 3.669L104.055 7.50035M104.055 7.50035L96.6255 11.3317C94.4996 12.428 92.1423 13 89.7504 13H84.2326C81.8406 13 79.4834 12.428 77.3575 11.3317L69.9278 7.50026M104.055 7.50035L96.6251 3.66892C94.4992 2.57267 92.1421 2.00069 89.7502 2.00069H84.2322C81.8403 2.00069 79.4831 2.5727 77.3572 3.66901L69.9278 7.50026M69.9278 7.50026L62.4981 11.3317C60.3722 12.428 58.015 13 55.6231 13H50.1052C47.7133 13 45.3561 12.428 43.2302 11.3317L35.8008 7.50043M69.9278 7.50026L62.4985 3.669C60.3726 2.5727 58.0154 2.00069 55.6234 2.00069H50.1055C47.7136 2.00069 45.3564 2.5727 43.2305 3.66901L35.8008 7.50043M35.8008 7.50043L28.3709 3.66888C26.2452 2.57266 23.8881 2.00065 21.4964 2.00057L2 1.99991M35.8008 7.50043L28.3718 11.3315C26.2457 12.4279 23.8882 12.9999 21.496 12.9998L9.32306 12.9992" stroke="white" stroke-width="3" stroke-linecap="round"/>
</svg>
